<svg width="162" height="63" viewBox="0 0 162 63" fill="none" xmlns="http://www.w3.org/2000/svg">
<g filter="url(#filter0_f_6_810)">
<path d="M80.3165 32.5103L80.6749 32.8508V32.8508L80.3165 32.5103ZM81.1049 31.6666L81.469 32.001C81.6481 31.806 81.6418 31.5043 81.4545 31.3171L81.1049 31.6666ZM81.8943 30.823L81.536 30.4824V30.4824L81.8943 30.823ZM81.1059 31.6667L80.7419 31.3323C80.5627 31.5273 80.5691 31.8289 80.7564 32.0162L81.1059 31.6667ZM37.2125 55.0573C41.9313 55.0573 49.2171 53.2651 57.0921 49.6102C64.9776 45.9504 73.4972 40.4033 80.6749 32.8508L79.9582 32.1698C72.88 39.6177 64.4682 45.097 56.6759 48.7134C48.8733 52.3348 41.7349 54.0687 37.2125 54.0687V55.0573ZM8.44016 34.426C8.44016 40.2733 10.5958 45.4592 15.3152 49.1699C20.0187 52.8682 27.2121 55.0573 37.2125 55.0573V54.0687C27.339 54.0687 20.3934 51.9051 15.9263 48.3928C11.4752 44.893 9.4288 40.0103 9.4288 34.426H8.44016ZM40.7193 13.049C32.576 13.049 24.5366 15.4363 18.5205 19.2812C12.5169 23.1182 8.44016 28.4714 8.44016 34.426H9.4288C9.4288 28.9489 13.1909 23.8607 19.0529 20.1143C24.9024 16.3758 32.7555 14.0376 40.7193 14.0376V13.049ZM81.4545 31.3171C71.3218 21.1844 56.9939 13.049 40.7193 13.049V14.0376C56.6592 14.0376 70.7497 22.0104 80.7554 32.0161L81.4545 31.3171ZM80.6749 32.8508C80.9414 32.5703 81.2062 32.2871 81.469 32.001L80.7409 31.3322C80.4819 31.6141 80.221 31.8933 79.9582 32.1698L80.6749 32.8508ZM82.2526 31.1635C89.3309 23.7155 97.7427 18.2363 105.535 14.6198C113.338 10.9985 120.476 9.26459 124.998 9.26459V8.27596C120.28 8.27596 112.994 10.0682 105.119 13.7231C97.2332 17.3828 88.7136 22.9299 81.536 30.4824L82.2526 31.1635ZM81.4699 32.0011C81.7289 31.7192 81.9899 31.44 82.2526 31.1635L81.536 30.4824C81.2694 30.7629 81.0047 31.0462 80.7419 31.3323L81.4699 32.0011ZM121.491 49.2956C105.552 49.2956 91.4612 41.3229 81.4554 31.3171L80.7564 32.0162C90.889 42.1489 105.217 50.2843 121.491 50.2843V49.2956ZM152.782 28.9073C152.782 34.3844 149.02 39.4725 143.158 43.219C137.308 46.9574 129.455 49.2956 121.491 49.2956V50.2843C129.635 50.2843 137.674 47.897 143.69 44.052C149.694 40.2151 153.771 34.8619 153.771 28.9073H152.782ZM124.998 9.26459C134.872 9.26459 141.817 11.4281 146.285 14.9405C150.736 18.4403 152.782 23.323 152.782 28.9073H153.771C153.771 23.0599 151.615 17.8741 146.896 14.1633C142.192 10.4651 134.999 8.27596 124.998 8.27596V9.26459Z" fill="#888888"/>
<path d="M80.3165 32.5103L80.6749 32.8508V32.8508L80.3165 32.5103ZM81.1049 31.6666L81.469 32.001C81.6481 31.806 81.6418 31.5043 81.4545 31.3171L81.1049 31.6666ZM81.8943 30.823L81.536 30.4824V30.4824L81.8943 30.823ZM81.1059 31.6667L80.7419 31.3323C80.5627 31.5273 80.5691 31.8289 80.7564 32.0162L81.1059 31.6667ZM37.2125 55.0573C41.9313 55.0573 49.2171 53.2651 57.0921 49.6102C64.9776 45.9504 73.4972 40.4033 80.6749 32.8508L79.9582 32.1698C72.88 39.6177 64.4682 45.097 56.6759 48.7134C48.8733 52.3348 41.7349 54.0687 37.2125 54.0687V55.0573ZM8.44016 34.426C8.44016 40.2733 10.5958 45.4592 15.3152 49.1699C20.0187 52.8682 27.2121 55.0573 37.2125 55.0573V54.0687C27.339 54.0687 20.3934 51.9051 15.9263 48.3928C11.4752 44.893 9.4288 40.0103 9.4288 34.426H8.44016ZM40.7193 13.049C32.576 13.049 24.5366 15.4363 18.5205 19.2812C12.5169 23.1182 8.44016 28.4714 8.44016 34.426H9.4288C9.4288 28.9489 13.1909 23.8607 19.0529 20.1143C24.9024 16.3758 32.7555 14.0376 40.7193 14.0376V13.049ZM81.4545 31.3171C71.3218 21.1844 56.9939 13.049 40.7193 13.049V14.0376C56.6592 14.0376 70.7497 22.0104 80.7554 32.0161L81.4545 31.3171ZM80.6749 32.8508C80.9414 32.5703 81.2062 32.2871 81.469 32.001L80.7409 31.3322C80.4819 31.6141 80.221 31.8933 79.9582 32.1698L80.6749 32.8508ZM82.2526 31.1635C89.3309 23.7155 97.7427 18.2363 105.535 14.6198C113.338 10.9985 120.476 9.26459 124.998 9.26459V8.27596C120.28 8.27596 112.994 10.0682 105.119 13.7231C97.2332 17.3828 88.7136 22.9299 81.536 30.4824L82.2526 31.1635ZM81.4699 32.0011C81.7289 31.7192 81.9899 31.44 82.2526 31.1635L81.536 30.4824C81.2694 30.7629 81.0047 31.0462 80.7419 31.3323L81.4699 32.0011ZM121.491 49.2956C105.552 49.2956 91.4612 41.3229 81.4554 31.3171L80.7564 32.0162C90.889 42.1489 105.217 50.2843 121.491 50.2843V49.2956ZM152.782 28.9073C152.782 34.3844 149.02 39.4725 143.158 43.219C137.308 46.9574 129.455 49.2956 121.491 49.2956V50.2843C129.635 50.2843 137.674 47.897 143.69 44.052C149.694 40.2151 153.771 34.8619 153.771 28.9073H152.782ZM124.998 9.26459C134.872 9.26459 141.817 11.4281 146.285 14.9405C150.736 18.4403 152.782 23.323 152.782 28.9073H153.771C153.771 23.0599 151.615 17.8741 146.896 14.1633C142.192 10.4651 134.999 8.27596 124.998 8.27596V9.26459Z" fill="white" fill-opacity="0.9"/>
</g>
<path d="M80.3141 32.5107L81.3891 33.5323L81.3891 33.5323L80.3141 32.5107ZM81.1025 31.667L82.1946 32.6702C82.7322 32.0851 82.713 31.1802 82.1511 30.6183L81.1025 31.667ZM81.8923 30.8228L80.8174 29.8013L80.8174 29.8013L81.8923 30.8228ZM81.104 31.6666L80.0119 30.6633C79.4743 31.2485 79.4935 32.1533 80.0554 32.7152L81.104 31.6666ZM37.2101 56.0463C42.1252 56.0463 49.5585 54.1958 57.5059 50.5073C65.4847 46.8043 74.1121 41.1893 81.3891 33.5323L79.2392 31.4891C72.2603 38.8325 63.9563 44.2439 56.2573 47.817C48.527 51.4048 41.5362 53.0804 37.2101 53.0804V56.0463ZM7.44913 34.4263C7.44913 40.5367 9.714 46.0257 14.7018 49.9475C19.6416 53.8316 27.0827 56.0463 37.2101 56.0463V53.0804C27.4635 53.0804 20.7657 50.9425 16.535 47.616C12.3522 44.3272 10.415 39.7477 10.415 34.4263H7.44913ZM40.7169 12.0607C32.3942 12.0607 24.1684 14.4972 17.9857 18.4486C11.8406 22.376 7.44913 27.9942 7.44913 34.4263H10.415C10.415 29.4267 13.8624 24.6037 19.5829 20.9477C25.2659 17.3157 32.9325 15.0266 40.7169 15.0266V12.0607ZM82.1511 30.6183C71.8915 20.3587 57.3262 12.0607 40.7169 12.0607V15.0266C56.3221 15.0266 70.1751 22.8368 80.0539 32.7156L82.1511 30.6183ZM81.3891 33.5323C81.6595 33.2478 81.928 32.9604 82.1946 32.6702L80.0105 30.6637C79.7553 30.9415 79.4982 31.2166 79.2392 31.4891L81.3891 33.5323ZM82.9673 31.8444C89.9462 24.501 98.2502 19.0896 105.949 15.5165C113.679 11.9288 120.67 10.2531 124.996 10.2531V7.28721C120.081 7.28721 112.648 9.13769 104.701 12.8262C96.7217 16.5293 88.0944 22.1442 80.8174 29.8013L82.9673 31.8444ZM82.196 32.6698C82.4512 32.392 82.7083 32.1169 82.9673 31.8444L80.8174 29.8013C80.547 30.0858 80.2785 30.3731 80.0119 30.6633L82.196 32.6698ZM121.49 48.3069C105.884 48.3069 92.0313 40.4967 82.1526 30.618L80.0554 32.7152C90.315 42.9748 104.88 51.2728 121.49 51.2728V48.3069ZM151.791 28.9072C151.791 33.9068 148.344 38.7298 142.624 42.3858C136.941 46.0178 129.274 48.3069 121.49 48.3069V51.2728C129.812 51.2728 138.038 48.8364 144.221 44.885C150.366 40.9576 154.757 35.3393 154.757 28.9072H151.791ZM124.996 10.2531C134.743 10.2531 141.441 12.391 145.672 15.7175C149.854 19.0064 151.791 23.5858 151.791 28.9072H154.757C154.757 22.7968 152.492 17.3078 147.505 13.386C142.565 9.50196 135.124 7.28721 124.996 7.28721V10.2531Z" fill="white"/>
<defs>
<filter id="filter0_f_6_810" x="0.531339" y="0.36691" width="161.148" height="62.5994" filterUnits="userSpaceOnUse" color-interpolation-filters="sRGB">
<feFlood flood-opacity="0" result="BackgroundImageFix"/>
<feBlend mode="normal" in="SourceGraphic" in2="BackgroundImageFix" result="shape"/>
<feGaussianBlur stdDeviation="3.95455" result="effect1_foregroundBlur_6_810"/>
</filter>
</defs>
</svg>
