<svg width="83" height="32" viewBox="0 0 83 32" fill="none" xmlns="http://www.w3.org/2000/svg">
<g filter="url(#filter0_f_6_764)">
<path d="M41.1032 16.427L41.2844 16.5992V16.5992L41.1032 16.427ZM41.502 16.0003L41.6861 16.1694C41.7767 16.0708 41.7734 15.9182 41.6787 15.8235L41.502 16.0003ZM41.9007 15.5735L41.7195 15.4013V15.4013L41.9007 15.5735ZM41.502 16.0002L41.3178 15.8311C41.2272 15.9297 41.2305 16.0823 41.3252 16.177L41.502 16.0002ZM19.3035 27.8301C21.69 27.8301 25.3748 26.9237 29.3575 25.0752C33.3456 23.2243 37.6544 20.4189 41.2844 16.5992L40.922 16.2548C37.3422 20.0216 33.088 22.7927 29.1471 24.6217C25.2009 26.4532 21.5907 27.3301 19.3035 27.3301V27.8301ZM4.75195 17.3958C4.75195 20.3531 5.84216 22.9758 8.229 24.8526C10.6077 26.7229 14.2458 27.8301 19.3035 27.8301V27.3301C14.31 27.3301 10.7973 26.2359 8.53805 24.4595C6.28692 22.6895 5.25195 20.2201 5.25195 17.3958H4.75195ZM21.0771 6.5845C16.9586 6.5845 12.8927 7.79187 9.85006 9.73643C6.81377 11.6769 4.75195 14.3843 4.75195 17.3958H5.25195C5.25195 14.6258 7.15461 12.0525 10.1193 10.1577C13.0777 8.26702 17.0493 7.0845 21.0771 7.0845V6.5845ZM41.6787 15.8235C36.5542 10.6989 29.3079 6.5845 21.0771 6.5845V7.0845C29.1386 7.0845 36.2648 11.1167 41.3252 16.1771L41.6787 15.8235ZM41.2844 16.5992C41.4193 16.4574 41.5532 16.3141 41.6861 16.1694L41.3178 15.8312C41.1869 15.9737 41.0549 16.1149 40.922 16.2548L41.2844 16.5992ZM42.0819 15.7457C45.6617 11.9789 49.916 9.20784 53.8568 7.37882C57.803 5.54735 61.4132 4.67043 63.7004 4.67043V4.17043C61.3139 4.17043 57.6292 5.07682 53.6464 6.92529C49.6583 8.7762 45.3495 11.5816 41.7195 15.4013L42.0819 15.7457ZM41.6861 16.1693C41.817 16.0268 41.949 15.8856 42.0819 15.7457L41.7195 15.4013C41.5846 15.5431 41.4508 15.6864 41.3178 15.8311L41.6861 16.1693ZM61.9268 24.916C53.8653 24.916 46.7391 20.8838 41.6787 15.8234L41.3252 16.177C46.4497 21.3016 53.696 25.416 61.9268 25.416V24.916ZM77.752 14.6047C77.752 17.3747 75.8493 19.948 72.8846 21.8428C69.9262 23.7335 65.9546 24.916 61.9268 24.916V25.416C66.0453 25.416 70.1112 24.2086 73.1538 22.2641C76.1901 20.3236 78.252 17.6162 78.252 14.6047H77.752ZM63.7004 4.67043C68.6939 4.67043 72.2066 5.76462 74.4659 7.54099C76.717 9.31101 77.752 11.7804 77.752 14.6047H78.252C78.252 11.6474 77.1617 9.02466 74.7749 7.14794C72.3962 5.27758 68.7581 4.17043 63.7004 4.17043V4.67043Z" fill="url(#paint0_linear_6_764)"/>
</g>
<path d="M41.1003 16.427L41.6439 16.9437V16.9437L41.1003 16.427ZM41.499 16.0003L42.0513 16.5077C42.3232 16.2117 42.3135 15.7541 42.0294 15.47L41.499 16.0003ZM41.8978 15.5738L41.3541 15.0571V15.0571L41.8978 15.5738ZM41.499 16.0005L40.9467 15.4931C40.6748 15.7891 40.6845 16.2467 40.9687 16.5308L41.499 16.0005ZM19.3005 28.3301C21.7864 28.3301 25.5457 27.3942 29.5651 25.5288C33.6004 23.6559 37.9636 20.8162 41.6439 16.9437L40.5566 15.9103C37.0271 19.6242 32.8273 22.361 28.9336 24.1682C25.0241 25.9826 21.4885 26.8301 19.3005 26.8301V28.3301ZM4.24902 17.3958C4.24902 20.4861 5.39448 23.2622 7.91702 25.2456C10.4153 27.21 14.1787 28.3301 19.3005 28.3301V26.8301C14.3712 26.8301 10.9838 25.7488 8.84416 24.0665C6.72874 22.4031 5.74902 20.0871 5.74902 17.3958H4.24902ZM21.0741 6.0845C16.8649 6.0845 12.7048 7.31672 9.57787 9.31513C6.46999 11.3014 4.24902 14.1428 4.24902 17.3958H5.74902C5.74902 14.8673 7.49252 12.4281 10.3857 10.579C13.2598 8.74217 17.1372 7.5845 21.0741 7.5845V6.0845ZM42.0294 15.47C36.8406 10.2812 29.4742 6.0845 21.0741 6.0845V7.5845C28.9664 7.5845 35.9725 11.5345 40.9687 16.5306L42.0294 15.47ZM41.6439 16.9437C41.7807 16.7998 41.9165 16.6544 42.0513 16.5077L40.9467 15.4929C40.8176 15.6334 40.6876 15.7725 40.5566 15.9103L41.6439 16.9437ZM42.4414 16.0905C45.971 12.3766 50.1707 9.63978 54.0644 7.83266C57.974 6.01818 61.5096 5.17073 63.6975 5.17073V3.67073C61.2117 3.67073 57.4523 4.6066 53.4329 6.47206C49.3977 8.34487 45.0344 11.1846 41.3541 15.0571L42.4414 16.0905ZM42.0513 16.5079C42.1804 16.3674 42.3104 16.2283 42.4414 16.0905L41.3541 15.0571C41.2174 15.201 41.0815 15.3464 40.9467 15.4931L42.0513 16.5079ZM61.9239 24.4163C54.0317 24.4163 47.0255 20.4664 42.0294 15.4702L40.9687 16.5308C46.1575 21.7196 53.5238 25.9163 61.9239 25.9163V24.4163ZM77.249 14.605C77.249 17.1335 75.5055 19.5727 72.6124 21.4218C69.7383 23.2586 65.8609 24.4163 61.9239 24.4163V25.9163C66.1331 25.9163 70.2933 24.6841 73.4202 22.6857C76.5281 20.6994 78.749 17.858 78.749 14.605H77.249ZM63.6975 5.17073C68.6268 5.17073 72.0142 6.25197 74.1539 7.93435C76.2693 9.59766 77.249 11.9137 77.249 14.605H78.749C78.749 11.5147 77.6036 8.73862 75.081 6.75519C72.5827 4.79083 68.8194 3.67073 63.6975 3.67073V5.17073Z" fill="#0074E4"/>
<defs>
<filter id="filter0_f_6_764" x="0.751953" y="0.17041" width="81.5" height="31.6597" filterUnits="userSpaceOnUse" color-interpolation-filters="sRGB">
<feFlood flood-opacity="0" result="BackgroundImageFix"/>
<feBlend mode="normal" in="SourceGraphic" in2="BackgroundImageFix" result="shape"/>
<feGaussianBlur stdDeviation="2" result="effect1_foregroundBlur_6_764"/>
</filter>
<linearGradient id="paint0_linear_6_764" x1="38.0956" y1="-2.12038" x2="29.5208" y2="21.176" gradientUnits="userSpaceOnUse">
<stop stop-color="#0074E4" stop-opacity="0.01"/>
<stop offset="1" stop-color="#0074E4"/>
</linearGradient>
</defs>
</svg>
